# Blender v2.74 (sub 0) OBJ File: ''
# www.blender.org
mtllib lefthand.mtl
o Hand
v -0.048671 -0.005576 0.000505
v 0.047612 -0.004255 0.000544
v 0.033692 -0.012388 0.099013
v -0.037883 -0.011227 0.099214
v -0.048173 0.024539 -0.005567
v 0.048110 0.026430 -0.005527
v 0.034190 0.018333 0.098900
v -0.037384 0.019494 0.099101
v -0.046752 -0.010109 0.038040
v 0.048923 -0.012418 0.034413
v -0.046253 0.021507 0.037927
v 0.049422 0.022317 0.034157
v -0.002382 -0.004517 0.000152
v -0.002095 -0.011807 0.099113
v -0.001883 0.027269 -0.006250
v -0.001597 0.018914 0.099000
v -0.001708 0.025178 0.037788
v -0.002206 -0.003856 0.037901
v 0.022615 -0.001961 0.000162
v 0.023113 0.028438 -0.006240
v 0.020533 0.025442 0.035977
v 0.015799 -0.012098 0.099063
v 0.016297 0.018623 0.098950
v 0.020035 -0.006336 0.036090
v -0.019989 -0.011517 0.099163
v -0.019491 0.019204 0.099050
v -0.024446 -0.005518 0.037963
v -0.027378 -0.004105 0.000142
v -0.026880 0.027680 -0.006260
v -0.023948 0.024830 0.037850
v 0.024005 -0.003411 -0.040724
v 0.046063 -0.003774 -0.040712
v 0.046502 0.022754 -0.046294
v 0.024445 0.023117 -0.046306
v 0.024995 -0.012980 -0.064677
v 0.044951 -0.013290 -0.064566
v 0.045348 0.007996 -0.076749
v 0.025393 0.008305 -0.076860
v 0.026045 -0.027795 -0.083603
v 0.042631 -0.028199 -0.083617
v 0.043036 -0.011713 -0.095924
v 0.026450 -0.011309 -0.095911
v -0.000746 0.006197 -0.049464
v -0.001192 -0.019730 -0.040105
v 0.021236 -0.020094 -0.040042
v 0.021683 0.005833 -0.049401
v 0.000457 -0.023786 -0.071278
v -0.000135 -0.040171 -0.052438
v 0.020180 -0.040490 -0.052077
v 0.020773 -0.024105 -0.070917
v 0.002142 -0.051169 -0.075438
v 0.002088 -0.058483 -0.052870
v 0.021033 -0.058241 -0.052757
v 0.021087 -0.050927 -0.075325
v -0.026521 -0.018137 -0.033542
v -0.003405 -0.018512 -0.033477
v -0.026060 0.008585 -0.043187
v -0.002944 0.008210 -0.043122
v -0.025878 -0.037318 -0.047719
v -0.004124 -0.037661 -0.047333
v -0.025243 -0.019773 -0.067894
v -0.003489 -0.020116 -0.067507
v -0.023384 -0.057418 -0.049996
v -0.003515 -0.057163 -0.049877
v -0.023332 -0.049557 -0.073559
v -0.003462 -0.049303 -0.073441
v -0.048920 -0.015240 -0.029319
v -0.048560 0.008136 -0.037746
v -0.030871 -0.015533 -0.029268
v -0.030511 0.007843 -0.037695
v -0.047405 -0.027520 -0.037925
v -0.046940 -0.012887 -0.054729
v -0.032463 -0.027755 -0.037660
v -0.031997 -0.013122 -0.054464
v -0.046265 -0.047864 -0.039102
v -0.046247 -0.042526 -0.058052
v -0.032652 -0.047690 -0.039021
v -0.032634 -0.042352 -0.057971
v 0.076620 -0.018285 0.038189
v 0.076637 0.010063 0.038252
v 0.073546 -0.000548 0.007651
v 0.056938 -0.017299 0.017389
v 0.091432 -0.016445 0.010496
v 0.074824 -0.033196 0.020234
v 0.068572 -0.020657 -0.016305
v 0.055551 -0.030945 -0.005348
v 0.079983 -0.035812 -0.017676
v 0.066963 -0.046100 -0.006718
v -0.022311 -0.013421 0.118677
v -0.042550 -0.013093 0.118734
v 0.038406 -0.014407 0.118507
v 0.038969 0.020341 0.118379
v -0.041986 0.021654 0.118606
v -0.021747 0.021326 0.118550
v 0.018167 -0.014078 0.118564
v -0.002072 -0.013750 0.118620
v 0.018730 0.020669 0.118436
v -0.001508 0.020998 0.118493
v -0.022295 -0.013402 0.124056
v -0.042534 -0.013074 0.124113
v 0.038421 -0.014387 0.123886
v 0.038985 0.020360 0.123758
v -0.041971 0.021674 0.123985
v -0.021732 0.021346 0.123929
v 0.018182 -0.014059 0.123943
v -0.002056 -0.013730 0.123999
v 0.018746 0.020689 0.123815
v -0.001493 0.021017 0.123872
v 0.048766 0.024821 0.014315
v 0.048268 -0.004395 0.017478
v 0.056161 -0.011173 0.023122
v 0.058915 0.014597 0.018288
vn -0.137000 -0.988400 -0.065300
vn 0.076300 0.992500 0.095600
vn 0.051700 0.992500 -0.110600
vn 0.051800 0.992500 -0.110700
vn -0.989500 0.016400 0.143800
vn -0.989500 0.016300 0.143900
vn -0.989500 0.016500 0.143800
vn -0.989500 0.016600 0.143800
vn -0.998600 0.021100 0.049300
vn -0.998600 0.021100 0.049200
vn -0.998600 0.021000 0.049300
vn 0.077700 0.994100 0.075300
vn 0.114300 0.986100 0.120700
vn 0.081600 0.993600 0.077900
vn -0.088700 -0.988000 -0.126700
vn -0.210600 -0.886600 -0.411900
vn 0.061600 -0.998000 -0.010600
vn 0.026400 -0.999600 -0.011000
vn 0.026500 -0.999600 -0.011000
vn 0.001400 0.998400 0.055900
vn -0.015400 -0.923000 0.384600
vn -0.015600 -0.923000 0.384400
vn -0.015800 -0.923100 0.384300
vn -0.016100 -0.923100 0.384100
vn -0.001200 0.995300 0.096700
vn -0.001100 0.995300 0.096700
vn 0.033600 -0.992900 -0.114400
vn -0.000300 -0.998700 -0.050300
vn -0.000300 -0.998700 -0.050400
vn -0.028100 0.997900 0.058100
vn -0.999500 0.007900 -0.031300
vn -0.999500 0.008100 -0.031700
vn -0.999500 0.007800 -0.031200
vn 0.005500 0.994500 0.104900
vn 0.005500 0.994500 0.105000
vn -0.073600 -0.991000 -0.111900
vn 0.105900 -0.992000 -0.069200
vn -0.074800 0.994700 0.070200
vn 0.030800 -0.942200 0.333500
vn 0.030900 -0.942200 0.333500
vn -0.145000 0.986600 0.074300
vn -0.144900 0.986700 0.074300
vn 0.136400 -0.986900 -0.086600
vn 0.136300 -0.986900 -0.086600
vn 0.136300 -0.986900 -0.086700
vn 0.015600 0.899800 -0.436100
vn 0.015500 0.899800 -0.436000
vn 0.015900 0.899700 -0.436300
vn 0.015800 0.899700 -0.436200
vn -0.999400 0.009100 -0.034300
vn -0.999400 0.009200 -0.034400
vn -0.999400 0.009300 -0.034400
vn -0.999400 0.009300 -0.034500
vn 0.999000 -0.024000 -0.037500
vn 0.999000 -0.023900 -0.037500
vn 0.999000 -0.024100 -0.037600
vn 0.999000 -0.024100 -0.037500
vn -0.056400 -0.998300 0.011900
vn -0.056500 -0.998300 0.011900
vn -0.017000 -0.787100 0.616600
vn -0.016800 -0.787000 0.616700
vn -0.015900 -0.928600 0.370800
vn -0.016000 -0.928600 0.370700
vn -0.016100 -0.928600 0.370600
vn -0.999300 0.003700 -0.037200
vn -0.999300 0.003700 -0.037300
vn -0.999300 0.003500 -0.036800
vn 0.999200 -0.028300 -0.029000
vn 0.999200 -0.028100 -0.029000
vn 0.999200 -0.028300 -0.029100
vn -0.015200 -0.597900 -0.801400
vn -0.998800 -0.009300 -0.047000
vn -0.998800 -0.009200 -0.047100
vn -0.998900 -0.009300 -0.046900
vn -0.998900 -0.009300 -0.047000
vn 0.996000 -0.062600 -0.064000
vn 0.015500 0.696700 -0.717200
vn 0.015300 0.696800 -0.717100
vn 0.015600 0.696600 -0.717200
vn 0.017400 0.585900 -0.810200
vn 0.017400 0.586000 -0.810200
vn 0.042100 -0.923000 0.382500
vn 0.042100 -0.923000 0.382400
vn 0.999500 -0.023000 -0.022400
vn 0.999500 -0.023100 -0.022400
vn -0.014400 0.892300 -0.451200
vn -0.014500 0.892300 -0.451200
vn 0.999300 0.022900 0.028700
vn 0.999300 0.023100 0.028600
vn -0.998600 -0.009800 -0.051600
vn -0.998600 -0.009800 -0.051400
vn 0.999400 -0.031800 -0.010900
vn 0.999400 -0.031600 -0.010900
vn -0.016700 -0.512300 0.858600
vn -0.016600 -0.512300 0.858600
vn -0.016700 -0.512400 0.858600
vn 0.014000 -0.951200 -0.308200
vn -0.012100 -0.031800 0.999400
vn -0.012100 -0.031900 0.999400
vn 0.012200 0.156500 -0.987600
vn 0.012200 0.156600 -0.987600
vn 0.012300 0.156500 -0.987600
vn -0.995000 -0.079000 -0.060800
vn -0.995000 -0.079000 -0.060700
vn 0.999700 -0.025600 -0.001300
vn 0.999700 -0.025800 -0.001300
vn 0.999700 -0.025700 -0.001300
vn 0.999600 -0.021700 -0.019400
vn 0.999600 -0.021400 -0.019300
vn 0.999600 -0.022300 -0.019500
vn -0.999600 0.008700 -0.027800
vn -0.999600 0.008800 -0.028000
vn -0.999600 0.008800 -0.027900
vn 0.015200 0.888200 -0.459200
vn 0.015100 0.888200 -0.459200
vn 0.015400 0.888100 -0.459300
vn -0.995100 -0.078200 -0.061100
vn -0.995100 -0.078200 -0.061000
vn -0.017600 -0.590200 0.807100
vn -0.017400 -0.590100 0.807100
vn -0.017500 -0.590200 0.807100
vn -0.017600 -0.590200 0.807000
vn -0.999300 -0.000300 -0.037100
vn -0.999300 -0.000300 -0.037200
vn 0.018100 0.654600 -0.755800
vn 0.018100 0.654600 -0.755700
vn 0.014100 -0.948500 -0.316400
vn 0.014000 -0.948500 -0.316400
vn 0.012300 0.193400 -0.981000
vn 0.012400 0.193400 -0.981100
vn 0.999700 0.009300 0.021100
vn 0.999700 0.009400 0.021100
vn -0.012300 -0.121800 0.992500
vn -0.012000 -0.121500 0.992500
vn -0.012400 -0.121900 0.992500
vn 0.017500 0.626500 -0.779200
vn 0.017500 0.626500 -0.779300
vn 0.994600 -0.041100 -0.095300
vn 0.994600 -0.041200 -0.095300
vn -0.070900 0.868600 -0.490400
vn -0.999900 0.016800 0.003200
vn -0.999900 0.016900 0.003100
vn -0.999900 0.016900 0.003200
vn 0.999800 -0.017200 0.003900
vn 0.999800 -0.017100 0.003800
vn -0.996200 -0.031900 -0.080600
vn -0.996200 -0.031900 -0.081100
vn 0.997300 -0.054700 -0.049800
vn -0.017000 -0.569900 0.821500
vn -0.017100 -0.570000 0.821500
vn -0.016800 -0.569700 0.821700
vn 0.013900 -0.962500 -0.271100
vn -0.012300 -0.063200 0.997900
vn -0.012200 -0.063100 0.997900
vn 0.012300 0.115300 -0.993300
vn -0.998900 -0.033700 -0.032300
vn -0.998900 -0.033700 -0.032400
vn 0.817800 -0.006600 0.575500
vn 0.817700 -0.006600 0.575500
vn 0.817800 -0.006700 0.575500
vn 0.426100 0.887200 -0.176700
vn 0.659300 0.687300 -0.304900
vn 0.558000 0.765000 -0.321600
vn 0.598600 0.536500 -0.594900
vn 0.865700 -0.223000 0.448200
vn -0.242000 -0.734400 0.634100
vn -0.604900 -0.583700 0.541700
vn -0.691600 -0.520500 -0.500800
vn -0.476400 -0.283500 -0.832300
vn -0.476500 -0.283500 -0.832200
vn 0.720300 -0.678400 0.144800
vn -0.661700 -0.603100 0.445400
vn -0.750500 0.579800 -0.316900
vn -0.750600 0.579800 -0.316900
vn -0.200900 -0.978500 -0.046900
vn 0.387600 0.910000 0.147200
vn 0.971500 -0.016600 -0.236600
vn -0.016200 -0.999900 0.003600
vn -0.016200 -0.999900 0.003700
vn -0.016200 -0.999900 0.003800
vn 0.015800 0.994200 -0.106400
vn -0.016400 -0.994900 -0.099000
vn -0.016500 -0.994900 -0.099100
vn -0.972800 0.015000 -0.231200
vn -0.972800 0.014900 -0.231200
vn -0.016400 -0.994900 -0.099100
vn 0.002900 0.003600 1.000000
vn 0.002800 0.003600 1.000000
vn 0.006600 0.519400 0.854500
vn 0.006500 0.523200 0.852200
vn 0.006400 0.527000 0.849900
vn -0.015800 -0.999500 0.029000
vn -0.015800 -0.999400 0.029300
vn -0.015800 -0.999400 0.029500
vn -0.011100 -0.794900 0.606700
vn -0.011200 -0.794800 0.606700
vn -0.011200 -0.794800 0.606800
vn 0.016200 0.999900 -0.003700
vn 0.016200 0.999900 -0.003800
vn 0.016200 0.999900 -0.003600
vn 0.999900 -0.016200 -0.002700
vn 0.999900 -0.016200 -0.002900
vn -0.999900 0.016200 0.002700
vn -0.999900 0.016200 0.002900
vn 0.346900 -0.155000 -0.925000
vn 0.346900 -0.155100 -0.925000
vn 0.999100 -0.022300 -0.036700
vn 0.999100 -0.022200 -0.036500
vn 0.999100 -0.022400 -0.036800
vn -0.684700 0.062900 -0.726100
vn 0.694900 0.716000 0.067400
vn -0.437900 -0.818900 -0.371000
usemtl b0b0b0
s 1
f 24//1 10//1 22//1
f 10//1 3//1 22//1
f 21//2 23//2 12//2
f 23//2 7//2 12//2
f 20//3 6//4 34//3
f 6//4 33//3 34//3
f 11//5 9//6 8//7
f 9//6 4//8 8//7
f 5//9 1//10 11//9
f 1//10 9//11 11//9
f 6//12 20//12 21//12
f 21//13 12//13 109//13
f 21//14 109//14 6//14
f 24//15 19//15 2//15
f 110//16 10//16 24//16
f 2//17 110//17 24//17
f 28//18 13//18 27//19
f 13//18 18//19 27//19
f 29//20 30//20 15//20
f 30//20 17//20 15//20
f 13//21 28//22 56//23
f 28//22 55//24 56//23
f 30//25 26//26 17//26
f 26//26 16//26 17//26
f 27//27 18//27 25//27
f 18//27 14//27 25//27
f 13//28 19//29 18//29
f 19//29 24//29 18//29
f 15//30 17//30 20//30
f 17//30 21//30 20//30
f 13//31 15//32 44//33
f 15//32 43//33 44//33
f 17//34 16//35 21//35
f 16//35 23//34 21//35
f 18//36 24//36 14//36
f 24//36 22//36 14//36
f 9//37 27//37 4//37
f 27//37 25//37 4//37
f 11//38 8//38 30//38
f 8//38 26//38 30//38
f 28//39 1//39 69//39
f 1//39 67//40 69//39
f 5//41 11//42 29//41
f 11//42 30//41 29//41
f 1//43 28//44 9//45
f 28//44 27//45 9//45
f 34//46 33//47 38//48
f 33//47 37//49 38//48
f 19//50 20//51 31//52
f 20//51 34//53 31//52
f 6//54 2//55 33//56
f 2//55 32//57 33//56
f 2//58 19//59 32//59
f 19//59 31//59 32//59
f 36//60 35//61 40//61
f 35//61 39//60 40//61
f 32//62 31//62 36//63
f 31//62 35//64 36//63
f 31//65 34//66 35//67
f 34//66 38//65 35//67
f 33//68 32//69 37//70
f 32//69 36//68 37//70
f 39//71 42//71 40//71
f 42//71 41//71 40//71
f 35//72 38//73 39//74
f 38//73 42//75 39//74
f 37//76 36//76 41//76
f 36//76 40//76 41//76
f 38//77 37//78 42//77
f 37//78 41//79 42//77
f 43//80 46//81 47//80
f 46//81 50//80 47//80
f 19//82 13//83 45//83
f 13//83 44//83 45//83
f 20//84 19//85 46//84
f 19//85 45//85 46//84
f 15//86 20//86 43//87
f 20//86 46//86 43//87
f 50//88 49//88 54//89
f 49//88 53//88 54//89
f 44//90 43//90 48//91
f 43//90 47//90 48//91
f 46//92 45//93 50//92
f 45//93 49//92 50//92
f 45//94 44//95 49//96
f 44//95 48//96 49//96
f 52//97 51//97 53//97
f 51//97 54//97 53//97
f 49//98 48//98 53//98
f 48//98 52//99 53//98
f 47//100 50//101 51//101
f 50//101 54//102 51//101
f 48//103 47//103 52//103
f 47//103 51//104 52//103
f 58//105 56//106 62//107
f 56//106 60//105 62//107
f 15//108 13//109 58//110
f 13//109 56//108 58//110
f 28//111 29//111 55//112
f 29//111 57//113 55//112
f 29//114 15//115 57//115
f 15//115 58//116 57//115
f 59//117 61//117 63//118
f 61//117 65//118 63//118
f 56//119 55//120 60//121
f 55//120 59//122 60//121
f 55//123 57//123 59//124
f 57//123 61//124 59//124
f 57//125 58//126 61//125
f 58//126 62//125 61//125
f 63//127 65//128 64//128
f 65//128 66//128 64//128
f 61//129 62//130 65//129
f 62//130 66//129 65//129
f 62//131 60//132 66//132
f 60//132 64//131 66//132
f 60//133 59//134 64//135
f 59//134 63//133 64//135
f 68//136 70//137 72//137
f 70//137 74//137 72//137
f 29//138 28//139 70//138
f 28//139 69//138 70//138
f 5//140 29//140 68//140
f 29//140 70//140 68//140
f 1//141 5//142 67//143
f 5//142 68//141 67//143
f 74//144 73//145 78//144
f 73//145 77//144 78//144
f 67//146 68//147 71//146
f 68//147 72//146 71//146
f 70//148 69//148 74//148
f 69//148 73//148 74//148
f 69//149 67//150 73//151
f 67//150 71//149 73//151
f 75//152 76//152 77//152
f 76//152 78//152 77//152
f 73//153 71//154 77//153
f 71//154 75//153 77//153
f 72//155 74//155 76//155
f 74//155 78//155 76//155
f 71//156 72//157 75//156
f 72//157 76//156 75//156
f 79//158 80//159 3//160
f 80//159 7//160 3//160
f 112//161 12//161 80//161
f 80//162 83//162 81//162
f 80//163 81//163 112//163
f 81//164 83//164 85//164
f 83//164 87//164 85//164
f 80//165 79//165 83//165
f 79//165 84//165 83//165
f 84//166 79//166 10//166
f 111//167 82//167 84//167
f 10//168 111//168 84//168
f 86//169 85//169 88//169
f 85//169 87//170 88//169
f 83//171 84//171 87//171
f 84//171 88//171 87//171
f 84//172 82//172 88//172
f 82//172 86//172 88//172
f 82//173 81//173 86//174
f 81//173 85//174 86//174
f 3//175 10//175 79//175
f 12//176 7//176 80//176
f 3//177 7//177 91//177
f 7//177 92//177 91//177
f 95//178 91//179 105//178
f 91//179 101//180 105//178
f 23//181 16//181 97//181
f 16//181 98//181 97//181
f 22//182 3//182 95//182
f 3//182 91//183 95//182
f 8//184 4//185 93//185
f 4//185 90//185 93//185
f 14//186 22//182 96//186
f 22//182 95//182 96//186
f 26//181 8//181 94//181
f 8//181 93//181 94//181
f 7//181 23//181 92//181
f 23//181 97//181 92//181
f 25//182 14//186 89//182
f 14//186 96//186 89//182
f 4//182 25//182 90//182
f 25//182 89//182 90//182
f 16//181 26//181 98//181
f 26//181 94//181 98//181
f 104//187 103//188 100//187
f 100//189 99//190 106//191
f 105//187 101//187 102//187
f 100//192 106//193 105//194
f 108//187 104//187 100//187
f 102//195 107//196 108//197
f 100//187 105//187 102//187
f 100//187 102//187 108//187
f 94//198 93//199 104//199
f 93//199 103//199 104//199
f 90//178 89//178 100//178
f 89//178 99//178 100//178
f 92//200 97//199 102//200
f 97//199 107//198 102//200
f 96//180 95//178 106//179
f 95//178 105//178 106//179
f 91//201 92//202 101//201
f 92//202 102//202 101//201
f 89//178 96//180 99//178
f 96//180 106//179 99//178
f 97//199 98//200 107//198
f 98//200 108//200 107//198
f 93//203 90//204 103//203
f 90//204 100//204 103//203
f 98//200 94//198 108//200
f 94//198 104//199 108//200
f 111//205 110//205 112//205
f 110//205 109//206 112//205
f 2//207 6//208 110//209
f 6//208 109//207 110//209
f 81//210 82//210 112//210
f 82//210 111//210 112//210
f 109//211 12//211 112//211
f 10//212 110//212 111//212
